<svg xmlns="http://www.w3.org/2000/svg" width="193" height="202"><path d="M1 135.389c1.942-8.299 18.452-17.086 28.649-14.646 5.827 1.465 13.111 31.244 18.452 32.708 4.301-1.921 15.287-20.927 32.534-46.865 17.808-26.781 42.15-60.871 63.611-85.919.971-1.465 2.428-2.929 2.428-3.906 3.399-4.393 15.539-12.204 23.794-14.157 7.283-1.464 19.423-2.929 21.365.488 1.942 3.418-13.596 22.945-19.423 28.803-18.452 21.968-84.491 109.84-94.688 130.344-3.399 3.905-15.053 22.944-25.25 35.637-12.14 5.858-26.222 1.952-30.592.488C14.111 187.624 1 150.522 1 135.389z" fill="#BA4270"/></svg>