<?xml version="1.0" encoding="UTF-8" standalone="no"?>
<!DOCTYPE svg PUBLIC "-//W3C//DTD SVG 1.1//EN" "http://www.w3.org/Graphics/SVG/1.1/DTD/svg11.dtd">
<svg width="100%" height="100%" viewBox="0 0 97 33" version="1.1" xmlns="http://www.w3.org/2000/svg" xmlns:xlink="http://www.w3.org/1999/xlink" xml:space="preserve" xmlns:serif="http://www.serif.com/" style="fill-rule:evenodd;clip-rule:evenodd;stroke-linejoin:round;stroke-miterlimit:2;">
    <path d="M74.618,8L73.287,9.376L71.517,9.376C72.967,10.65 73.603,12.011 73.603,13.593C73.603,15.899 72.344,17.055 71.453,17.836C71.29,17.986 70.855,18.298 70.603,18.572C70.461,18.74 70.072,19.185 70.072,19.857C70.072,20.327 70.223,20.726 71.003,21.353C73.657,23.408 74.705,24.599 74.705,26.773C74.705,29.858 71.869,33 66.392,33C61.767,33 59.565,30.662 59.565,28.286C59.565,25.573 61.999,23.048 68.055,22.667C67.415,21.917 67.113,21.43 67.113,20.563C67.114,19.974 67.357,19.366 67.357,19.366L66.467,19.366C62.947,19.366 61.241,16.589 61.241,14.128C61.241,10.895 63.635,8 68.06,8L74.618,8ZM68.59,23.664C64.047,23.729 62.39,25.5 62.39,27.558C62.39,30.043 64.807,31.564 67.969,31.564C70.849,31.564 72.627,30.01 72.627,28.029C72.627,26.587 71.819,25.779 70.524,24.719C69.967,24.28 69.171,23.692 69.171,23.692C69.171,23.692 68.928,23.664 68.591,23.664L68.59,23.664ZM13.512,0C17.732,0 20.684,1.284 22.722,2.636L19.5,5.794L19.5,3.891C17.781,2.364 15.86,1.268 12.558,1.268C7.339,1.268 3.598,5.234 3.598,10.889C3.598,16.655 7.734,22.559 14.77,22.559C16.506,22.559 18.176,22.329 19.499,21.913L19.499,16.08L15.259,16.08L16.679,14.7L24.239,14.7L23.126,15.79C22.92,15.976 22.782,16.188 22.782,16.496L22.782,22.523C19.25,23.485 16.197,24 12.757,24C5.66,24 0.015,19.425 0.015,11.83C0.015,6.492 4.249,0 13.512,0ZM33.739,8C38.339,8.001 41.397,11.606 41.397,15.318C41.397,19.303 38.268,23 33.167,23C27.865,23 25.248,18.986 25.248,15.606C25.248,11.69 28.497,8 33.74,8L33.739,8ZM81.612,0L80.452,1.14C80.251,1.312 80.139,1.566 80.146,1.83L80.146,20.92C80.146,21.33 80.441,21.751 80.936,21.81L82.78,22.037L81.8,23L75.375,23L76.552,21.846C76.745,21.649 76.835,21.458 76.835,21.177L76.835,1.403L74.705,1.403L76.132,0L81.612,0ZM90.272,8C94.124,8 95.8,9.987 96.395,11.96L86.1,15.833C87.083,19.43 89.892,21.387 92.806,21.387C94.34,21.387 95.494,20.951 96.909,20.287C96.159,21.22 95.133,21.963 94.065,22.421C93.07,22.846 92.008,23 90.719,23C85.547,23 82.779,19.022 82.779,15.202C82.78,10.576 86.638,8 90.27,8L90.272,8ZM51.906,8C56.506,8.001 59.564,11.606 59.564,15.318C59.564,19.303 56.434,23 51.334,23C46.032,23 43.415,18.986 43.415,15.606C43.416,11.69 46.665,8 51.907,8L51.906,8ZM32.87,9.076C32.27,9.076 31.356,9.19 30.38,9.791C29.186,10.593 28.428,11.682 28.428,13.913C28.428,16.153 29.218,18.446 30.025,19.679C30.943,21.019 32.168,22.039 33.922,22.039L33.991,22.039C34.675,22.024 38.212,21.749 38.212,17.022C38.212,13.714 36.566,9.076 32.87,9.076ZM51.038,9.076C50.438,9.076 49.523,9.19 48.548,9.791C47.354,10.593 46.596,11.682 46.596,13.913C46.596,16.153 47.386,18.446 48.193,19.679C49.11,21.019 50.336,22.039 52.09,22.039L52.159,22.039C52.843,22.024 56.38,21.749 56.38,17.022C56.38,13.714 54.734,9.076 51.038,9.076ZM66.839,9.029C65.292,9.029 63.991,10.229 63.991,12.487C63.991,14.987 65.161,17.09 66.339,17.879C66.869,18.254 67.496,18.405 68.019,18.405C69.086,18.405 71.059,17.687 71.059,15.061C71.059,12.629 69.805,10.663 69.02,9.931C68.312,9.322 67.642,9.029 66.84,9.029L66.839,9.029ZM89.597,9.059C88.309,9.059 85.697,9.957 85.697,13.319C85.697,14.12 85.869,14.862 85.869,14.862L92.197,12.48C92.7,12.295 92.955,12.096 92.955,11.718C92.955,10.55 91.545,9.058 89.597,9.058L89.597,9.059Z" style="fill:rgb(55,83,105);fill-rule:nonzero;"/>
</svg>
