<?xml version="1.0" encoding="UTF-8" standalone="no"?>
<!DOCTYPE svg PUBLIC "-//W3C//DTD SVG 1.1//EN" "http://www.w3.org/Graphics/SVG/1.1/DTD/svg11.dtd">
<svg width="100%" height="100%" viewBox="0 0 142 27" version="1.1" xmlns="http://www.w3.org/2000/svg" xmlns:xlink="http://www.w3.org/1999/xlink" xml:space="preserve" xmlns:serif="http://www.serif.com/" style="fill-rule:evenodd;clip-rule:evenodd;stroke-linejoin:round;stroke-miterlimit:2;">
    <path d="M69.493,16.373L74.305,27L71.827,27L70.959,25.077L64.873,25.077L64.015,27L61.443,27L66.35,16.373L69.493,16.373ZM120.105,16.373C121.82,16.373 123.296,17.575 123.296,19.739C123.296,21.662 122.916,22.383 122.343,22.865C123.105,23.249 123.296,24.162 123.296,24.787L123.296,26.998L121.01,26.998L121.01,25.076C121.01,24.643 120.533,23.873 119.58,23.873L115.485,23.873L115.485,27L113.103,27L113.103,16.373L120.105,16.373ZM90.539,16.383L90.539,20.367L91.585,20.367L95.723,16.383L98.957,16.383L93.867,21.374L98.1,25.598L98.1,26.99L96.292,26.99L91.775,22.574L90.54,22.574L90.54,26.99L88.113,26.99L88.113,16.383L90.54,16.383L90.539,16.383ZM58.724,16.389C60.006,16.389 61.764,17.204 61.764,20.224C61.764,23.197 60.148,24.011 58.723,24.011L53.497,24.011L53.497,26.984L51.074,26.984L51.074,16.389L58.724,16.389ZM133.474,16.391C135.469,16.391 136.419,17.781 136.419,19.65L136.419,22.887C136.407,24.395 136.154,26.981 133.427,26.981L125.687,26.981L125.687,16.391L133.474,16.391ZM106.484,16.394L111.281,26.979L108.811,26.979L107.946,25.063L101.879,25.063L101.025,26.979L99.126,26.979L99.126,25.494L103.351,16.394L106.484,16.394ZM83.621,16.4C85.139,16.447 86.039,18.027 86.039,18.936L86.039,19.844L83.62,19.844C83.571,19.365 83.145,18.649 82.766,18.649L78.591,18.649C77.644,18.649 77.786,19.605 77.786,19.605L77.786,23.815C77.786,24.581 78.26,24.772 78.545,24.772L82.671,24.772C83.571,24.772 83.668,24.007 83.668,23.528L86.038,23.528L86.038,24.485C86.038,26.065 84.948,26.973 83.621,26.973L77.834,26.973C76.031,26.973 75.367,25.585 75.367,24.485L75.367,18.887C75.367,17.692 76.647,16.4 77.786,16.4L83.621,16.4ZM40.52,0C42.49,0 44.087,1.58 44.087,3.57L44.087,23.29C44.087,24.241 43.711,25.154 43.041,25.829C42.375,26.5 41.466,26.876 40.521,26.873L23.662,26.873L24.38,24.703C30.36,23.815 34.925,19.106 34.925,13.43C34.925,7.324 29.642,2.336 22.996,2.021L23.76,0L40.52,0ZM17.886,0L17.031,2.4C12.916,4.605 9.832,9.038 9.832,13.43C9.832,18.428 13.382,22.838 18.32,24.44L17.459,26.873L4.252,26.873C2.287,26.873 0.694,25.248 0.694,23.263L0.694,3.598C0.693,1.614 2.285,0.004 4.252,0.001L17.886,0.001L17.886,0ZM29.796,7.902C31.124,7.902 32.501,8.6 31.789,10.507L29.748,16.184C29.368,17.254 29.036,17.999 27.042,17.999L24.547,17.999L21.727,26L19.02,26L25.38,7.902L29.796,7.902ZM132.858,18.596L128.108,18.596L128.108,24.776L132.668,24.776C133.522,24.776 133.997,23.962 133.997,23.052L133.997,20.032C134.046,19.363 133.571,18.596 132.857,18.596L132.858,18.596ZM67.921,18.344L65.873,22.864L69.922,22.864L67.921,18.344ZM104.918,18.358L102.876,22.86L106.95,22.86L104.918,18.358ZM58.011,18.594L53.497,18.594L53.497,21.806L58.153,21.806C59.199,21.806 59.199,20.704 59.199,20.225L59.199,20.155C59.196,19.643 59.145,18.595 58.011,18.595L58.011,18.594ZM119.579,18.585L115.484,18.585L115.484,21.662L119.866,21.662C120.771,21.662 121.009,20.556 121.009,20.028C121.009,19.498 120.771,18.585 119.579,18.585ZM21.934,0L19.096,7.947L20.705,7.947C22.36,7.947 23.212,8.643 22.786,10.033C22.36,11.423 19.948,18.002 19.948,18.002L17.158,18.002L19.948,10.218C20.042,9.754 20.042,9.338 19.476,9.338L18.624,9.338L15.503,18.002L12.806,18.002L12.806,18L19.191,0L21.934,0ZM28.8,9.298L27.613,9.298L25.039,16.603L26.236,16.603C26.711,16.603 26.948,16.091 26.996,15.812C26.999,15.795 27.008,15.761 27.024,15.71L27.087,15.512C27.233,15.07 27.534,14.211 27.857,13.299L28.034,12.799C28.539,11.38 29.037,9.996 29.037,9.996C29.179,9.624 29.227,9.298 28.8,9.298ZM78.28,0.156L80.521,7.42L82.904,0.204L85.191,0.204L87.573,7.42L89.813,0.156L92.243,0.156L88.813,10.788L87.383,10.788C86.668,10.787 85.978,9.705 85.834,9.176L84.048,3.62L81.713,10.788L80.236,10.788C79.521,10.788 78.901,9.682 78.758,9.153L75.85,0.156L78.28,0.156ZM136.359,0.158L136.359,2.37L132.811,2.37L132.811,10.783L130.383,10.783L130.383,2.37L126.883,2.37L126.883,0.158L136.359,0.158ZM74.48,0.167L74.48,2.377L67.155,2.377L67.155,4.345L73.243,4.345L73.243,6.553L67.155,6.553L67.155,8.569L74.48,8.569L74.48,10.776L66.252,10.776C65.3,10.776 64.73,10.008 64.73,9.384L64.73,1.751C64.73,0.791 65.3,0.167 66.394,0.167L74.48,0.167ZM125.138,0.165L125.138,2.375L121.593,2.375L121.593,10.776L119.168,10.776L119.168,2.375L115.671,2.375L115.671,0.165L125.138,0.165ZM113.894,0.171L113.894,2.377L106.574,2.377L106.574,4.344L112.658,4.344L112.658,6.55L106.574,6.55L106.574,8.565L113.894,8.565L113.894,10.771L105.671,10.771C104.719,10.771 104.149,10.004 104.149,9.38L104.149,1.755C104.149,0.795 104.719,0.171 105.813,0.171L113.894,0.171ZM53.497,0.174L53.497,4.344L59.816,4.344L59.816,0.175L62.239,0.175L62.239,10.77L59.816,10.77L59.816,6.55L53.496,6.55L53.496,10.77L51.074,10.77L51.074,0.174L53.497,0.174ZM96.426,0.177L96.426,8.56L102.836,8.56L102.836,10.764L95.713,10.764C94.621,10.764 94.003,9.998 94.003,9.184L94.003,0.177L96.426,0.177ZM139.642,0.094C140.269,0.084 140.872,0.334 141.311,0.786C141.769,1.248 142,1.807 142,2.463C142.01,3.097 141.76,3.706 141.31,4.149C140.876,4.604 140.271,4.857 139.642,4.848C139.014,4.858 138.409,4.605 137.977,4.149C137.529,3.704 137.282,3.094 137.294,2.463C137.285,1.833 137.534,1.227 137.984,0.786C138.417,0.336 139.018,0.085 139.642,0.094ZM139.643,0.414C139.083,0.414 138.607,0.614 138.212,1.016C137.818,1.415 137.622,1.897 137.622,2.462C137.612,3.008 137.824,3.535 138.209,3.919C138.581,4.311 139.101,4.53 139.642,4.521C140.182,4.53 140.702,4.311 141.076,3.919C141.47,3.517 141.666,3.032 141.666,2.462C141.666,1.897 141.47,1.415 141.076,1.016C140.703,0.625 140.183,0.406 139.643,0.414Z" style="fill:rgb(55,83,105);fill-rule:nonzero;"/>
</svg>
