<svg viewBox="0 0 487 323" xmlns="http://www.w3.org/2000/svg" fill-rule="evenodd" clip-rule="evenodd" stroke-linejoin="round" stroke-miterlimit="2"><path fill="none" d="M0 0h486.546v322.683H0z"/><path d="M465.726 27.448c0-4.415-3.585-8-8-8h-429c-4.415 0-8 3.585-8 8v267.999c0 4.415 3.585 8 8 8h429c4.415 0 8-3.585 8-8v-268z"/><path d="M465.726 27.448c0-4.415-3.585-8-8-8h-429c-4.415 0-8 3.585-8 8v267.999c0 4.415 3.585 8 8 8h429c4.415 0 8-3.585 8-8v-268z" fill="#1b262f"/><path d="M28.726 19.448h429" fill="none"/><g transform="translate(36.726 31.448)"><circle cx="8" cy="8" r="8" fill="#ba4270"/><circle cx="30.4" cy="8" r="8" fill="#527695"/><circle cx="52.8" cy="8" r="8" fill="#36536b"/></g><g><text font-family="'LucidaGrande','Lucida Grande',sans-serif" font-weight="500" font-size="13" fill="#fbfcfe" transform="translate(52.726 105.447)">&lt;form id=&quot;form-id&quot; method=&quot;GET&quot;&gt; &lt;/form&gt;</text><text font-family="'LucidaGrande','Lucida Grande',sans-serif" font-weight="500" font-size="13" fill="#fbfcfe" transform="translate(52.726 125.447)">&lt;script</text><text font-family="'LucidaGrande','Lucida Grande',sans-serif" font-weight="500" font-size="13" fill="#fbfcfe" transform="translate(52.726 145.447)">src=&quot;https://loremipsum.com/api.js&quot;</text><text font-family="'LucidaGrande','Lucida Grande',sans-serif" font-weight="500" font-size="13" fill="#fbfcfe" transform="translate(52.726 165.447)">data-client-name=&quot;Your Company&apos;s Name&quot;</text><text font-family="'LucidaGrande','Lucida Grande',sans-serif" font-weight="500" font-size="13" fill="#fbfcfe" transform="translate(52.726 185.447)">data-form-id=&quot;form-id&quot;</text><text font-family="'LucidaGrande','Lucida Grande',sans-serif" font-weight="500" font-size="13" fill="#fbfcfe" transform="translate(52.726 205.447)">data-key=&quot;test_key&quot;</text><text font-family="'LucidaGrande','Lucida Grande',sans-serif" font-weight="500" font-size="13" fill="#fbfcfe" transform="translate(52.726 225.447)">data-product=&quot;transactions&quot;</text><text font-family="'LucidaGrande','Lucida Grande',sans-serif" font-weight="500" font-size="13" fill="#fbfcfe" transform="translate(52.726 245.447)">data-env=&quot;sandbox&quot;&gt;</text><text font-family="'LucidaGrande','Lucida Grande',sans-serif" font-weight="500" font-size="13" fill="#fbfcfe" transform="translate(52.726 265.447)">&lt;/script&gt;</text></g></svg>