<?xml version="1.0" encoding="UTF-8" standalone="no"?>
<!DOCTYPE svg PUBLIC "-//W3C//DTD SVG 1.1//EN" "http://www.w3.org/Graphics/SVG/1.1/DTD/svg11.dtd">
<svg width="100%" height="100%" viewBox="0 0 148 31" version="1.1" xmlns="http://www.w3.org/2000/svg" xmlns:xlink="http://www.w3.org/1999/xlink" xml:space="preserve" xmlns:serif="http://www.serif.com/" style="fill-rule:evenodd;clip-rule:evenodd;stroke-linejoin:round;stroke-miterlimit:2;">
    <path d="M15.922,16L15.922,31L0.782,31L0.782,16L15.922,16ZM32.071,16L32.071,31L16.93,31L16.93,16L32.071,16ZM111.62,11.223C112.077,11.223 112.603,11.277 113.182,11.383C113.764,11.49 114.243,11.621 114.607,11.775L114.657,11.796L114.657,14.654L114.527,14.567C114.094,14.284 113.621,14.068 113.124,13.925C112.603,13.766 112.062,13.684 111.517,13.681C110.947,13.681 110.494,13.808 110.167,14.057C109.844,14.305 109.687,14.611 109.687,14.993C109.687,15.425 109.814,15.765 110.065,16.006C110.326,16.256 110.959,16.58 111.946,16.971C113.186,17.464 114.074,18.021 114.586,18.63C115.102,19.242 115.363,20.002 115.363,20.888C115.363,22.116 114.877,23.12 113.919,23.873C112.966,24.621 111.661,25 110.039,25C109.514,25 108.909,24.93 108.244,24.795C107.577,24.66 107.012,24.487 106.563,24.283L106.514,24.261L106.514,21.247L106.646,21.341C107.189,21.726 107.788,22.025 108.422,22.229C109.061,22.437 109.644,22.542 110.155,22.542C111.535,22.542 112.205,22.112 112.205,21.229C112.205,20.919 112.138,20.668 112.008,20.484C111.874,20.297 111.637,20.104 111.302,19.912C110.96,19.717 110.422,19.469 109.699,19.176C108.839,18.811 108.191,18.453 107.771,18.111C107.362,17.785 107.037,17.367 106.823,16.89C106.619,16.425 106.515,15.877 106.515,15.26C106.515,14.073 106.997,13.092 107.946,12.344C108.89,11.6 110.126,11.224 111.62,11.224L111.62,11.223ZM137.763,5C138.497,5 139.09,5.078 139.525,5.232L139.58,5.252L139.58,7.908L139.463,7.856C139.03,7.658 138.56,7.552 138.084,7.546C137.461,7.546 136.973,7.744 136.631,8.132C136.287,8.526 136.112,9.115 136.112,9.885L136.112,11.54L140.816,11.54L140.816,8.57L140.875,8.552L143.855,7.652L143.961,7.62L143.961,11.54L147.134,11.54L147.134,14.061L143.962,14.061L143.962,20.266C143.962,21.061 144.106,21.63 144.392,21.955C144.673,22.277 145.127,22.44 145.742,22.44C145.904,22.44 146.115,22.405 146.368,22.335C146.618,22.266 146.833,22.174 147.005,22.061L147.135,21.977L147.135,24.521L147.093,24.546C146.903,24.652 146.583,24.752 146.112,24.852C145.669,24.948 145.218,24.997 144.765,25C142.145,25 140.815,23.591 140.815,20.811L140.815,14.061L136.112,14.061L136.112,24.683L132.941,24.683L132.941,14.06L130.731,14.06L130.731,11.54L132.941,11.54L132.941,9.72C132.941,8.807 133.145,7.981 133.548,7.266C133.947,6.555 134.543,5.974 135.264,5.593C135.997,5.199 136.838,5 137.764,5L137.763,5ZM123.79,11.223C125.86,11.223 127.5,11.831 128.667,13.029C129.833,14.227 130.424,15.894 130.424,17.984C130.424,20.1 129.794,21.817 128.551,23.086C127.308,24.356 125.598,24.999 123.469,24.999C121.426,24.999 119.775,24.389 118.562,23.182C117.348,21.976 116.733,20.322 116.733,18.263C116.733,16.097 117.363,14.363 118.606,13.111C119.85,11.858 121.594,11.223 123.79,11.223ZM98.388,11.223C100.457,11.223 102.098,11.831 103.264,13.029C104.43,14.227 105.022,15.894 105.022,17.984C105.022,20.1 104.392,21.817 103.149,23.086C101.906,24.356 100.196,24.999 98.067,24.999C96.024,24.999 94.373,24.389 93.16,23.182C91.946,21.976 91.33,20.322 91.33,18.263C91.33,16.097 91.961,14.363 93.204,13.111C94.447,11.858 96.192,11.223 98.388,11.223ZM77.774,11.223C78.334,11.223 78.922,11.285 79.524,11.409C80.13,11.532 80.617,11.695 80.974,11.892L81.017,11.916L81.017,14.9L80.885,14.806C79.935,14.126 78.932,13.783 77.903,13.783C76.699,13.783 75.71,14.185 74.964,14.979C74.216,15.776 73.837,16.855 73.837,18.187C73.837,19.511 74.201,20.563 74.919,21.313C75.635,22.061 76.622,22.441 77.851,22.441C78.294,22.441 78.798,22.344 79.352,22.154C79.899,21.968 80.415,21.702 80.885,21.366L81.017,21.271L81.017,24.104L80.975,24.127C79.956,24.707 78.685,25 77.196,25C75.92,25 74.768,24.723 73.771,24.178C72.781,23.64 71.967,22.828 71.427,21.839C70.87,20.835 70.588,19.695 70.588,18.454C70.588,17.036 70.879,15.764 71.451,14.677C72.016,13.596 72.891,12.708 73.964,12.127C75.054,11.527 76.336,11.223 77.774,11.223ZM89.85,11.312C90.373,11.312 90.785,11.374 91.077,11.496L91.127,11.517L91.127,14.634L90.997,14.54C90.851,14.437 90.605,14.339 90.266,14.248C89.959,14.163 89.643,14.117 89.324,14.112C88.491,14.112 87.809,14.467 87.298,15.168C86.779,15.878 86.517,16.816 86.517,17.96L86.517,24.683L83.384,24.683L83.384,11.54L86.517,11.54L86.517,13.816L86.55,13.816C86.843,13.077 87.225,12.485 87.755,12.053C88.344,11.567 89.086,11.304 89.85,11.312ZM68.43,11.54L68.43,24.683L65.298,24.683L65.298,11.54L68.431,11.54L68.43,11.54ZM46.77,6.343L52.228,19.965L57.852,6.343L62.277,6.343L62.277,24.683L59.08,24.683L59.08,10.57L58.977,10.57L53.303,24.683L51.036,24.683L45.272,10.569L45.169,10.569L45.169,24.683L42.164,24.683L42.164,6.343L46.77,6.343ZM123.624,13.783C122.49,13.783 121.591,14.165 120.951,14.919C120.308,15.678 119.981,16.769 119.981,18.162C119.981,19.513 120.308,20.576 120.951,21.322C121.591,22.064 122.498,22.441 123.649,22.441C124.807,22.441 125.693,22.071 126.282,21.343C126.875,20.61 127.176,19.513 127.176,18.086C127.176,16.676 126.856,15.594 126.226,14.869C125.599,14.149 124.723,13.783 123.624,13.783ZM98.222,13.783C97.088,13.783 96.189,14.165 95.55,14.919C94.906,15.678 94.58,16.769 94.58,18.162C94.58,19.513 94.905,20.576 95.549,21.322C96.189,22.064 97.096,22.441 98.247,22.441C99.405,22.441 100.291,22.071 100.879,21.343C101.473,20.61 101.773,19.513 101.773,18.086C101.773,16.676 101.453,15.594 100.823,14.869C100.196,14.149 99.321,13.783 98.222,13.783ZM15.922,0L15.922,15L0.782,15L0.782,0L15.922,0ZM32.07,0L32.07,15L16.93,15L16.93,0L32.07,0ZM66.895,5.941C67.438,5.941 67.896,6.119 68.257,6.471C68.619,6.824 68.803,7.253 68.803,7.747C68.803,8.25 68.614,8.676 68.243,9.011C67.873,9.345 67.42,9.514 66.896,9.514C66.371,9.514 65.92,9.344 65.555,9.011C65.194,8.691 64.992,8.229 65.001,7.747C65.001,7.235 65.19,6.802 65.561,6.457C65.93,6.114 66.38,5.941 66.895,5.941Z" style="fill:rgb(55,83,105);fill-rule:nonzero;"/>
</svg>
