<?xml version="1.0" encoding="UTF-8" standalone="no"?>
<!DOCTYPE svg PUBLIC "-//W3C//DTD SVG 1.1//EN" "http://www.w3.org/Graphics/SVG/1.1/DTD/svg11.dtd">
<svg width="100%" height="100%" viewBox="0 0 139 26" version="1.1" xmlns="http://www.w3.org/2000/svg" xmlns:xlink="http://www.w3.org/1999/xlink" xml:space="preserve" xmlns:serif="http://www.serif.com/" style="fill-rule:evenodd;clip-rule:evenodd;stroke-linejoin:round;stroke-miterlimit:2;">
    <path d="M40.086,0L40.086,26L15.427,26L15.427,22.947C15.949,23.005 16.47,23.034 17.021,23.034C22.729,23.034 32.798,20.126 37.116,16.509C36.478,15.872 33.392,14.411 32.639,13.803C28.089,17.71 23.396,21.023 16.905,21.023C16.412,21.023 15.905,20.979 15.413,20.922L15.413,18.752C16.007,18.852 16.601,18.91 17.209,18.91C24.178,18.91 30.871,10.78 30.871,10.78C30.871,10.78 25.033,3.154 16.094,3.458L15.398,3.501L15.398,0L40.086,0ZM15.413,3.501L15.412,5.41L15.398,5.411L15.398,5.412L15.028,5.446C8.298,6.136 4.878,11.013 4.753,11.194C4.75,11.199 7.459,19.938 15.398,20.922L15.398,22.947C4.576,21.934 0.722,10.794 0.722,10.794C0.722,10.794 7.532,4.138 15.412,3.501L15.413,3.501ZM90.19,5.029L90.19,22L85.336,22L85.336,5.029L90.19,5.029ZM99.97,5.03C103.846,5.03 106.44,5.49 108.219,7.863C109.224,9.186 109.793,11.315 109.793,13.703C109.793,16.306 109.123,18.693 108.073,19.772C106.6,21.31 105.23,22 101.033,22L93.163,22L93.163,5.029L99.97,5.03ZM70.412,5.03L74.289,18.477L78.341,5.03L83.296,5.03L77.699,22L70.704,22L65.165,5.029L70.412,5.029L70.412,5.03ZM116.92,5.029L116.92,22L112.066,22L112.066,5.029L116.92,5.029ZM56.07,5C60.23,5.03 64.421,6.013 64.421,12.607L64.421,21.985L59.67,21.985L59.67,14.233C59.67,11.859 59.364,10.551 58.591,9.745C57.994,9.112 57.119,8.81 55.866,8.81L52.047,8.796L52.047,21.985L47.15,21.985L47.15,5L56.07,5ZM132.164,5.028L139,21.97L133.797,21.97L132.777,18.979L124.761,18.979L123.682,21.985L118.902,21.985L125.679,5.028L132.165,5.028L132.164,5.028ZM15.398,7.755L15.398,9.781L15.384,9.781C12.877,9.477 10.907,11.821 10.907,11.821L10.915,11.848C11.021,12.199 12.187,15.826 15.398,16.914L15.398,18.766C9.4,17.695 7.734,11.459 7.734,11.459L7.804,11.385L7.893,11.296C8.556,10.64 11.269,8.205 15.398,7.756L15.398,7.755ZM100.057,8.711L97.973,8.711L97.973,18.361L100.057,18.361C103.088,18.361 105.041,17.009 105.041,13.529C105.041,10.049 103.088,8.711 100.057,8.711ZM26.742,10.909L26.723,10.936L26.624,11.067C25.881,12.043 21.733,17.217 17.311,17.217C16.659,17.217 16.021,17.117 15.413,16.914L15.413,9.795C17.919,10.099 18.426,11.199 19.919,13.702L23.265,10.895C23.265,10.895 20.817,7.697 16.702,7.697C16.267,7.687 15.831,7.707 15.398,7.755L15.398,5.412L15.413,5.412L15.412,5.41L15.746,5.391C15.862,5.386 15.978,5.382 16.094,5.382C22.526,5.18 26.742,10.909 26.742,10.909ZM128.827,8.121L125.795,16.061L131.771,16.061L128.827,8.121Z" style="fill:rgb(55,83,105);fill-rule:nonzero;"/>
</svg>
