<?xml version="1.0" encoding="UTF-8" standalone="no"?>
<!DOCTYPE svg PUBLIC "-//W3C//DTD SVG 1.1//EN" "http://www.w3.org/Graphics/SVG/1.1/DTD/svg11.dtd">
<svg width="100%" height="100%" viewBox="0 0 133 17" version="1.1" xmlns="http://www.w3.org/2000/svg" xmlns:xlink="http://www.w3.org/1999/xlink" xml:space="preserve" xmlns:serif="http://www.serif.com/" style="fill-rule:evenodd;clip-rule:evenodd;stroke-linejoin:round;stroke-miterlimit:2;">
    <path d="M57.08,11.06L65.818,11.06L61.198,3.709L52.719,16.999L48.861,16.999L59.174,1.036C59.637,0.379 60.395,-0.008 61.198,0C62,0 62.748,0.376 63.182,1.008L73.536,17L69.677,17L67.857,14.03L59.01,14.03L57.08,11.06ZM97.165,14.03L97.165,0.16L93.891,0.16L93.891,15.386C93.891,15.803 94.054,16.206 94.366,16.515C94.679,16.824 95.1,16.999 95.562,16.999L110.495,16.999L112.425,14.029L97.165,14.029L97.165,14.03ZM42.99,11.543C46.17,11.543 48.752,9.003 48.752,5.859C48.752,2.714 46.17,0.161 42.99,0.161L28.665,0.161L28.665,17L31.938,17L31.938,3.131L42.773,3.131C42.777,3.131 42.78,3.131 42.784,3.131C44.282,3.131 45.515,4.362 45.518,5.86C45.515,7.357 44.282,8.587 42.785,8.587C42.781,8.587 42.777,8.587 42.773,8.587L33.542,8.574L43.317,17L48.073,17L41.496,11.544L42.991,11.544L42.99,11.543ZM8.514,17C3.814,17 0,13.237 0,8.587C0,3.937 3.814,0.161 8.514,0.161L18.41,0.161C23.111,0.161 26.923,3.937 26.923,8.587C26.923,13.237 23.11,17 18.41,17L8.514,17ZM18.19,14.03C21.235,14.03 23.702,11.597 23.702,8.587C23.702,5.577 21.235,3.131 18.19,3.131L8.733,3.131C5.689,3.131 3.222,5.577 3.222,8.587C3.222,11.597 5.689,14.03 8.733,14.03L18.19,14.03ZM80.37,17C75.67,17 71.851,13.237 71.851,8.587C71.851,3.937 75.67,0.161 80.371,0.161L92.125,0.161L90.208,3.131L80.588,3.131C77.545,3.131 75.072,5.577 75.072,8.587C75.072,11.597 77.545,14.03 80.588,14.03L92.396,14.03L90.466,17L80.37,17ZM120.414,14.03C117.901,14.03 115.767,12.364 115.115,10.065L129.111,10.065L131.04,7.095L115.115,7.095C115.767,4.811 117.901,3.131 120.415,3.131L130.021,3.131L131.964,0.161L120.197,0.161C115.495,0.161 111.677,3.937 111.677,8.587C111.677,13.237 115.495,16.999 120.197,16.999L130.293,16.999L132.222,14.029L120.414,14.029L120.414,14.03Z" style="fill:rgb(55,83,105);fill-rule:nonzero;"/>
</svg>
