<svg viewBox="0 0 633 559" xmlns="http://www.w3.org/2000/svg" fill-rule="evenodd" clip-rule="evenodd"><path fill="none" d="M0 0h632.34v558.172H0z"/><path d="M369.674 33.57h191.234c18.34 0 33.208 14.235 33.208 31.795v435.27c0 17.56-14.867 31.796-33.208 31.796H369.674c-18.34 0-33.208-14.236-33.208-31.796V65.365c0-17.56 14.868-31.796 33.208-31.796v.001z"/><path d="M369.674 33.57h191.234c18.34 0 33.208 14.235 33.208 31.795v435.27c0 17.56-14.867 31.796-33.208 31.796H369.674c-18.34 0-33.208-14.236-33.208-31.796V65.365c0-17.56 14.868-31.796 33.208-31.796v.001z" fill="#213648"/><path d="M225.18 0H32.356C23.352.549 15.05 4.657 7.447 12.324c4.89-4.268 13.61-9.98 25.14-9.98h192.362c11.53 0 20.25 5.712 25.14 9.98C242.486 4.657 234.183.549 225.18 0z" fill="url(#_Linear1)" transform="translate(336.466 33)"/><path d="M252.431 462.67V34.983c0-11.476-4.217-15.718-6.733-18.442-2.516-2.723-2.623-4.113.992-2.056 3.615 2.056 10.845 8.047 10.845 20.498V462.67c0 12.451-7.23 18.441-10.845 20.498-3.615 2.056-3.508.667-.992-2.057s6.733-6.966 6.733-18.441z" fill="url(#_Linear2)" transform="translate(336.466 33)"/><path d="M8.548 462.67V34.983c0-11.476-4.217-15.718-6.733-18.442-2.516-2.723-2.623-4.113.992-2.056 3.615 2.056 10.845 8.047 10.845 20.498V462.67c0 12.451-7.23 18.441-10.845 20.498-3.615 2.056-3.508.667-.992-2.057s6.733-6.966 6.733-18.441z" fill="url(#_Linear3)" transform="matrix(-1 0 0 1 350.118 33)"/><path d="M335.898 134.556h.965c1.097 0 2 .903 2 2v60.351c0 1.097-.903 2-2 2h-.965c-1.097 0-2-.903-2-2v-60.35c0-1.097.903-2 2-2v-.001zm257.535 52.487h.965c1.097 0 2 .903 2 2v42.95c0 1.097-.903 2-2 2h-.965c-1.097 0-2-.903-2-2v-42.95c0-1.097.903-2 2-2z" fill="#2e423c"/><path d="M442.574 45.444h-74.406c-11.106 0-19.196 7.563-19.196 17.441v422.39c0 12.88 12.502 24.292 26.64 24.292h179.332c13.618 0 26.64-11.5 26.64-24.292V64.027c0-11.84-8.79-18.513-19.196-18.583h-75.586c-.287.047-5.479 2.182-7.673 7.563-2.195 5.382-6.61 9.672-11.445 9.672h-5.615c-2.298 0-8.348-2.23-11.411-9.672-3.063-7.442-7.798-7.516-8.084-7.563z" fill="#36536b"/><path d="M552.898 180c0-2.76-2.24-5-5-5h-166c-2.76 0-5 2.24-5 5v181c0 2.76 2.24 5 5 5h166c2.76 0 5-2.24 5-5V180z"/><path d="M552.898 180c0-2.76-2.24-5-5-5h-166c-2.76 0-5 2.24-5 5v181c0 2.76 2.24 5 5 5h166c2.76 0 5-2.24 5-5V180z" fill="#fbfcfe"/><text x="-57.682" font-family="'LucidaGrande','Lucida Grande',sans-serif" font-weight="500" font-size="13" fill="#36536b" transform="translate(463.95 292.931)">Payment <tspan x="-.206" y="0">o</tspan>f $9204</text><text x="-54.048" font-family="'LucidaGrande','Lucida Grande',sans-serif" font-weight="500" font-size="13" fill="#36536b" transform="translate(463.95 309.181)">is compl<tspan x="-.933" y="0">e</tspan>ted and</text><text x="-71.786" font-family="'LucidaGrande','Lucida Grande',sans-serif" font-weight="500" font-size="13" fill="#36536b" transform="translate(463.95 325.431)">processe<tspan x="-16.005" y="0">d</tspan> succes<tspan x="38.068" y="0">s</tspan>fully</text><g transform="translate(436.796 209.204)"><circle cx="28" cy="28" r="28" fill="#ba4270" fill-opacity=".25"/><path d="M19 29.696l4.577 4.577L36.85 21" fill="none" stroke="#ba4270" stroke-width="3"/></g><g><path d="M530.898 366c0-8.279-6.721-15-15-15h-101c-8.279 0-15 6.721-15 15s6.721 15 15 15h101c8.279 0 15-6.721 15-15z" fill="#ba4270"/><text font-family="'LucidaGrande-Bold','Lucida Grande',sans-serif" font-weight="600" font-size="11" fill="#fbfcfe" transform="translate(445.624 370)">Dismiss</text></g><g><path d="M66.674 26.386h191.234c18.34 0 33.208 14.235 33.208 31.795v435.27c0 17.56-14.867 31.796-33.208 31.796H66.674c-18.34 0-33.208-14.236-33.208-31.796V58.181c0-17.56 14.868-31.796 33.208-31.796v.001z"/><path d="M66.674 26.386h191.234c18.34 0 33.208 14.235 33.208 31.795v435.27c0 17.56-14.867 31.796-33.208 31.796H66.674c-18.34 0-33.208-14.236-33.208-31.796V58.181c0-17.56 14.868-31.796 33.208-31.796v.001z" fill="#213648"/><path d="M225.18 0H32.356C23.352.549 15.05 4.657 7.447 12.324c4.89-4.268 13.61-9.98 25.14-9.98h192.362c11.53 0 20.25 5.712 25.14 9.98C242.486 4.657 234.183.549 225.18 0z" fill="url(#_Linear4)" transform="translate(33.466 25.816)"/><path d="M252.431 462.67V34.983c0-11.476-4.217-15.718-6.733-18.442-2.516-2.723-2.623-4.113.992-2.056 3.615 2.056 10.845 8.047 10.845 20.498V462.67c0 12.451-7.23 18.441-10.845 20.498-3.615 2.056-3.508.667-.992-2.057s6.733-6.966 6.733-18.441z" fill="url(#_Linear5)" transform="translate(33.466 25.816)"/><path d="M8.548 462.67V34.983c0-11.476-4.217-15.718-6.733-18.442-2.516-2.723-2.623-4.113.992-2.056 3.615 2.056 10.845 8.047 10.845 20.498V462.67c0 12.451-7.23 18.441-10.845 20.498-3.615 2.056-3.508.667-.992-2.057s6.733-6.966 6.733-18.441z" fill="url(#_Linear6)" transform="matrix(-1 0 0 1 47.118 25.816)"/><path d="M32.898 127.372h.965c1.097 0 2 .903 2 2v60.351c0 1.097-.903 2-2 2h-.965c-1.097 0-2-.903-2-2v-60.35c0-1.097.903-2 2-2zm257.535 52.487h.965c1.097 0 2 .903 2 2v42.95c0 1.097-.903 2-2 2h-.965c-1.097 0-2-.903-2-2v-42.95c0-1.097.903-2 2-2z" fill="#2e423c"/><g transform="translate(45.972 38.26)"><path d="M93.602 0H19.196C8.09 0 0 7.563 0 17.441v422.39c0 12.88 12.502 24.292 26.64 24.292h179.332c13.618 0 26.64-11.5 26.64-24.292V18.583c0-11.84-8.79-18.513-19.196-18.583H137.83c-.287.047-5.479 2.182-7.673 7.563-2.195 5.382-6.61 9.672-11.445 9.672h-5.615c-2.298 0-8.348-2.23-11.411-9.672C98.623.121 93.888.047 93.602 0z" fill="#edf3f8"/><clipPath id="a"><path d="M93.602 0H19.196C8.09 0 0 7.563 0 17.441v422.39c0 12.88 12.502 24.292 26.64 24.292h179.332c13.618 0 26.64-11.5 26.64-24.292V18.583c0-11.84-8.79-18.513-19.196-18.583H137.83c-.287.047-5.479 2.182-7.673 7.563-2.195 5.382-6.61 9.672-11.445 9.672h-5.615c-2.298 0-8.348-2.23-11.411-9.672C98.623.121 93.888.047 93.602 0z"/></clipPath><g clip-path="url(#a)"><path d="M218.926 453.556c0-2.76-2.24-5-5-5h-194c-2.76 0-5 2.24-5 5v30c0 2.76 2.24 5 5 5h194c2.76 0 5-2.24 5-5v-30z"/><path d="M218.926 453.556c0-2.76-2.24-5-5-5h-194c-2.76 0-5 2.24-5 5v30c0 2.76 2.24 5 5 5h194c2.76 0 5-2.24 5-5v-30z" fill="#fbfcfe"/><g><text font-family="'LucidaGrande','Lucida Grande',sans-serif" font-weight="500" font-size="10" fill="#36536b" transform="translate(30.926 468.556)">Item #001</text><text font-family="'LucidaGrande-Bold','Lucida Grande',sans-serif" font-weight="600" font-size="13" fill="#36536b" transform="translate(163.392 472.556)">$4199</text></g></g><path d="M218.926 165.556c0-2.76-2.24-5-5-5h-194c-2.76 0-5 2.24-5 5v30c0 2.76 2.24 5 5 5h194c2.76 0 5-2.24 5-5v-30z"/><path d="M218.926 165.556c0-2.76-2.24-5-5-5h-194c-2.76 0-5 2.24-5 5v30c0 2.76 2.24 5 5 5h194c2.76 0 5-2.24 5-5v-30z" fill="#fbfcfe"/><text font-family="'LucidaGrande','Lucida Grande',sans-serif" font-weight="500" font-size="10" fill="#36536b" transform="translate(30.926 180.556)">Item #001</text><text font-family="'LucidaGrande-Bold','Lucida Grande',sans-serif" font-weight="600" font-size="13" fill="#36536b" transform="translate(177.557 184.556)">$29</text><path d="M218.926 213.556c0-2.76-2.24-5-5-5h-194c-2.76 0-5 2.24-5 5v30c0 2.76 2.24 5 5 5h194c2.76 0 5-2.24 5-5v-30z"/><path d="M218.926 213.556c0-2.76-2.24-5-5-5h-194c-2.76 0-5 2.24-5 5v30c0 2.76 2.24 5 5 5h194c2.76 0 5-2.24 5-5v-30z" fill="#fbfcfe"/><text font-family="'LucidaGrande','Lucida Grande',sans-serif" font-weight="500" font-size="10" fill="#36536b" transform="translate(30.926 228.556)">Item #002</text><text font-family="'LucidaGrande-Bold','Lucida Grande',sans-serif" font-weight="600" font-size="13" fill="#36536b" transform="translate(171.762 232.556)">$105</text><path d="M218.926 261.556c0-2.76-2.24-5-5-5h-194c-2.76 0-5 2.24-5 5v30c0 2.76 2.24 5 5 5h194c2.76 0 5-2.24 5-5v-30z"/><path d="M218.926 261.556c0-2.76-2.24-5-5-5h-194c-2.76 0-5 2.24-5 5v30c0 2.76 2.24 5 5 5h194c2.76 0 5-2.24 5-5v-30z" fill="#fbfcfe"/><g><text font-family="'LucidaGrande','Lucida Grande',sans-serif" font-weight="500" font-size="10" fill="#36536b" transform="translate(30.926 276.556)">Item #003</text><text font-family="'LucidaGrande-Bold','Lucida Grande',sans-serif" font-weight="600" font-size="13" fill="#36536b" transform="translate(171.814 280.556)">$810</text></g><g><path d="M218.926 309.556c0-2.76-2.24-5-5-5h-194c-2.76 0-5 2.24-5 5v30c0 2.76 2.24 5 5 5h194c2.76 0 5-2.24 5-5v-30z"/><path d="M218.926 309.556c0-2.76-2.24-5-5-5h-194c-2.76 0-5 2.24-5 5v30c0 2.76 2.24 5 5 5h194c2.76 0 5-2.24 5-5v-30z" fill="#fbfcfe"/></g><g><text font-family="'LucidaGrande','Lucida Grande',sans-serif" font-weight="500" font-size="10" fill="#36536b" transform="translate(30.926 324.556)">Item #004</text><text font-family="'LucidaGrande-Bold','Lucida Grande',sans-serif" font-weight="600" font-size="13" fill="#36536b" transform="translate(163.627 328.556)">$1044</text></g><g><path d="M218.926 357.556c0-2.76-2.24-5-5-5h-194c-2.76 0-5 2.24-5 5v30c0 2.76 2.24 5 5 5h194c2.76 0 5-2.24 5-5v-30z"/><path d="M218.926 357.556c0-2.76-2.24-5-5-5h-194c-2.76 0-5 2.24-5 5v30c0 2.76 2.24 5 5 5h194c2.76 0 5-2.24 5-5v-30z" fill="#fbfcfe"/><g><text font-family="'LucidaGrande','Lucida Grande',sans-serif" font-weight="500" font-size="10" fill="#36536b" transform="translate(30.926 372.556)">Item #005</text><text font-family="'LucidaGrande-Bold','Lucida Grande',sans-serif" font-weight="600" font-size="13" fill="#36536b" transform="translate(177.473 376.556)">$40</text></g></g><g><path d="M218.926 405.556c0-2.76-2.24-5-5-5h-194c-2.76 0-5 2.24-5 5v30c0 2.76 2.24 5 5 5h194c2.76 0 5-2.24 5-5v-30z"/><path d="M218.926 405.556c0-2.76-2.24-5-5-5h-194c-2.76 0-5 2.24-5 5v30c0 2.76 2.24 5 5 5h194c2.76 0 5-2.24 5-5v-30z" fill="#fbfcfe"/><g><text font-family="'LucidaGrande','Lucida Grande',sans-serif" font-weight="500" font-size="10" fill="#36536b" transform="translate(30.926 420.556)">Item #006</text><text font-family="'LucidaGrande-Bold','Lucida Grande',sans-serif" font-weight="600" font-size="13" fill="#36536b" transform="translate(160.415 424.556)">$2566</text></g></g><g><path d="M0 17.288C0 6.635 8.635-2 19.288-2h194.681A19.032 19.032 0 01233 17.031V112H0V17.288z" fill="#36536b"/></g><g><path d="M218.926 85.556c0-2.76-2.24-5-5-5h-194c-2.76 0-5 2.24-5 5v46c0 2.76 2.24 5 5 5h194c2.76 0 5-2.24 5-5v-46z"/><path d="M218.926 85.556c0-2.76-2.24-5-5-5h-194c-2.76 0-5 2.24-5 5v46c0 2.76 2.24 5 5 5h194c2.76 0 5-2.24 5-5v-46z" fill="#fbfcfe"/><text font-family="'LucidaGrande','Lucida Grande',sans-serif" font-weight="500" font-size="10" fill="#36536b" transform="translate(31.157 108.556)">Total payment</text><g><text font-family="'LucidaGrande-Bold','Lucida Grande',sans-serif" font-weight="600" font-size="20" fill="#ba4270" transform="translate(138.265 115.556)">$920<tspan x="52.65" y="0">4</tspan></text></g></g><g><path d="M105.848 54.988v-4.952h.04c.351.512.799.9 1.345 1.162.558.265 1.17.4 1.788.394.768 0 1.439-.148 2.011-.444a4.255 4.255 0 001.435-1.193c.384-.498.67-1.071.86-1.718.188-.646.282-1.32.282-2.02 0-.742-.094-1.453-.283-2.133a5.202 5.202 0 00-.869-1.789 4.367 4.367 0 00-1.475-1.232c-.593-.31-1.3-.465-2.122-.465-.647 0-1.24.128-1.779.384-.539.256-.983.667-1.334 1.233h-.04V40.88h-2.729v14.107h2.87v.001zm2.405-5.538c-.458 0-.849-.094-1.172-.283a2.262 2.262 0 01-.778-.738 3.179 3.179 0 01-.424-1.06 5.813 5.813 0 01-.132-1.234c0-.43.04-.848.121-1.253.081-.404.22-.76.415-1.07a2.36 2.36 0 01.768-.759c.316-.195.71-.293 1.182-.293.458 0 .846.098 1.162.293.317.196.576.452.778.768.202.317.347.677.435 1.082.087.404.131.815.131 1.232 0 .418-.04.829-.121 1.233a3.03 3.03 0 01-.414 1.061 2.306 2.306 0 01-.768.738c-.317.189-.711.283-1.183.283zm10.031 2.142c.644 0 1.284-.095 1.9-.283a3.748 3.748 0 001.617-.99c.027.344.095.683.202 1.01h2.91c-.135-.215-.229-.538-.283-.97-.054-.43-.08-.882-.08-1.354V43.57c0-.634-.142-1.142-.425-1.526a2.9 2.9 0 00-1.092-.9 4.884 4.884 0 00-1.475-.434 11.85 11.85 0 00-1.597-.111c-.58 0-1.159.058-1.728.172a4.944 4.944 0 00-1.546.576 3.445 3.445 0 00-1.131 1.07c-.297.445-.465 1.004-.506 1.678h2.87c.054-.566.243-.97.566-1.212.323-.243.768-.364 1.334-.364.256 0 .495.017.717.05a1.6 1.6 0 01.587.202c.168.101.303.243.404.425.1.182.151.428.151.737.014.297-.074.523-.262.678-.189.154-.445.272-.768.353a7.591 7.591 0 01-1.112.182c-.418.04-.842.094-1.273.162-.431.067-.86.158-1.284.273a3.61 3.61 0 00-1.131.515c-.33.229-.6.536-.809.92-.209.384-.313.872-.313 1.465 0 .539.09 1.004.273 1.394.182.391.434.714.758.97.323.256.7.445 1.131.566a5.11 5.11 0 001.395.182v-.001zm1.071-1.9c-.229 0-.451-.02-.667-.06a1.625 1.625 0 01-.566-.212 1.087 1.087 0 01-.384-.415 1.35 1.35 0 01-.141-.646c0-.27.047-.492.141-.667.095-.176.22-.32.374-.435.155-.114.337-.205.546-.273.209-.067.42-.121.636-.161.23-.04.459-.075.688-.101a8.61 8.61 0 00.656-.102c.21-.04.405-.09.587-.151.181-.06.333-.145.454-.253v1.071c0 .162-.017.378-.05.647-.034.27-.125.536-.273.798a1.892 1.892 0 01-.687.678c-.31.188-.748.282-1.314.282zm8.818 5.296c.984 0 1.752-.182 2.304-.546.553-.364.984-.97 1.294-1.819l4.365-11.742h-2.97l-2.285 7.154h-.04l-2.365-7.154h-3.052l3.659 9.802c.08.202.12.417.12.647 0 .31-.09.592-.272.848-.182.256-.461.405-.839.445a5.87 5.87 0 01-.849-.02l-.828-.081v2.365c.296.027.59.05.879.07.29.02.583.03.88.03l-.001.001zm11.81-3.416c.498 0 .956-.06 1.374-.182a4.17 4.17 0 001.121-.505c.33-.216.61-.462.839-.738.23-.276.404-.57.526-.879h.04v.546c0 .215.017.414.05.596.034.182.098.34.192.475.106.144.25.256.415.323.182.081.428.122.737.122.216 0 .425-.027.627-.081v-.647c-.243.04-.431.06-.566.06-.175 0-.31-.036-.404-.11a.608.608 0 01-.202-.294 1.503 1.503 0 01-.071-.404 9.396 9.396 0 01-.01-.444v-6.043c0-.795-.286-1.439-.859-1.93-.573-.492-1.485-.738-2.739-.738-1.253 0-2.22.286-2.9.859-.68.572-1.047 1.431-1.101 2.577h.768c.054-.93.367-1.624.94-2.082.572-.458 1.323-.687 2.253-.687.526 0 .97.054 1.334.161.323.087.626.239.89.445.228.189.397.404.504.647.108.242.162.505.162.788 0 .364-.02.667-.06.91-.04.242-.142.44-.304.596-.161.155-.4.276-.717.363-.317.088-.751.152-1.304.192l-1.192.102c-.418.04-.852.107-1.304.202a3.93 3.93 0 00-1.233.475c-.37.222-.677.525-.92.909-.242.384-.363.88-.363 1.486 0 .997.303 1.734.91 2.213.606.478 1.461.717 2.566.717h.001zm.02-.667c-.85 0-1.516-.185-2.001-.556-.485-.37-.728-.94-.728-1.707 0-.486.094-.88.283-1.183.189-.303.435-.542.738-.717.303-.175.643-.3 1.02-.374.378-.074.755-.132 1.132-.172l1.294-.121c.471-.04.899-.101 1.283-.182.384-.081.67-.236.859-.465v1.94c0 .135-.037.394-.111.778-.074.384-.246.782-.516 1.193-.27.41-.66.775-1.172 1.091-.512.317-1.206.475-2.081.475zm7.888 4.143v-5.881h.04c.31.849.802 1.462 1.476 1.84.673.376 1.441.565 2.304.565.795 0 1.485-.135 2.071-.404a3.95 3.95 0 001.455-1.122c.384-.478.67-1.047.86-1.708.188-.66.282-1.387.282-2.182 0-.728-.094-1.422-.283-2.082a5.121 5.121 0 00-.859-1.738 4.205 4.205 0 00-1.455-1.193c-.586-.296-1.276-.444-2.071-.444-.566 0-1.068.087-1.506.263a4.04 4.04 0 00-1.122.656c-.31.263-.559.55-.748.86a4 4 0 00-.404.848h-.04v-2.385h-.768v14.107h.768zm3.82-4.143c-.728 0-1.338-.131-1.83-.394a3.169 3.169 0 01-1.172-1.051 4.365 4.365 0 01-.616-1.516 8.59 8.59 0 01-.182-1.788c0-.62.067-1.216.202-1.789a4.533 4.533 0 01.657-1.526 3.422 3.422 0 011.182-1.071c.485-.27 1.071-.404 1.759-.404.7 0 1.296.138 1.788.414.492.276.893.64 1.203 1.091.31.452.539.964.687 1.536.148.571.223 1.159.222 1.749a6.98 6.98 0 01-.232 1.829 4.5 4.5 0 01-.708 1.505c-.316.432-.72.775-1.212 1.031-.492.256-1.075.384-1.748.384zm7.261-11.924v-2.082h-.768v2.082h.768zm0 12.349V40.94h-.768v10.39h.768z" fill="#fff" fill-rule="nonzero"/><circle cx="12.09" cy="3.158" r="1.895" fill="#fff" transform="rotate(45 8.547 109.173)"/><circle cx="16.556" cy="7.624" r="1.895" fill="#fff" transform="rotate(45 13.013 113.639)"/><circle cx="21.022" cy="12.09" r="1.895" fill="#fff" transform="rotate(45 17.48 118.105)"/><g transform="rotate(45 4.081 113.639)"><circle cx="7.624" cy="7.624" r="1.895" fill="#fff"/><clipPath id="b"><circle cx="7.624" cy="7.624" r="1.895"/></clipPath><g clip-path="url(#b)"><path d="M206.36-239.19l-52.612 52.612c-7.854 7.854-8.226 18.922-1.241 25.907l298.675 298.675c9.107 9.107 26.017 8.336 36.014-1.66L614.003 9.535c9.63-9.629 10.705-26.969 1.66-36.014L317.796-324.345c-8.372-8.373-19.306-6.876-26.714.433l-53.447 53.447c-.17.237-2.332 5.418-.078 10.774 2.253 5.358 2.165 11.513-1.254 14.932l-3.97 3.97c-1.625 1.625-7.48 4.326-14.908 1.23-7.428-3.096-10.829.2-11.064.368z" fill="#36536b"/></g></g><circle cx="12.09" cy="12.09" r="1.895" fill="#fff" fill-opacity=".5" transform="rotate(45 8.547 118.105)"/><circle cx="16.556" cy="16.556" r="1.895" fill="#fff" fill-opacity=".5" transform="rotate(45 13.013 122.57)"/><circle cx="3.158" cy="12.09" r="1.895" fill="#fff" transform="rotate(45 -.385 118.105)"/><circle cx="7.624" cy="16.556" r="1.895" fill="#fff" fill-opacity=".5" transform="rotate(45 4.081 122.57)"/><circle cx="12.09" cy="21.022" r="1.895" fill="#fff" fill-opacity=".25" transform="rotate(45 8.547 127.037)"/></g></g></g><defs><linearGradient id="_Linear1" x1="0" y1="0" x2="1" y2="0" gradientUnits="userSpaceOnUse" gradientTransform="matrix(0 12.324 -12.324 0 128.768 0)"><stop offset="0" stop-color="#454545" stop-opacity=".39"/><stop offset=".23" stop-color="#999" stop-opacity=".39"/><stop offset="1" stop-color="#fff" stop-opacity=".39"/></linearGradient><linearGradient id="_Linear2" x1="0" y1="0" x2="1" y2="0" gradientUnits="userSpaceOnUse" gradientTransform="rotate(180 128.768 124.413) scale(9.46068)"><stop offset="0" stop-color="#fff" stop-opacity="0"/><stop offset=".22" stop-color="#bababa" stop-opacity=".75"/><stop offset=".55" stop-color="#fff" stop-opacity="0"/><stop offset="1" stop-color="#fff" stop-opacity="0"/></linearGradient><linearGradient id="_Linear3" x1="0" y1="0" x2="1" y2="0" gradientUnits="userSpaceOnUse" gradientTransform="rotate(180 6.826 124.413) scale(9.47583)"><stop offset="0" stop-color="#fff" stop-opacity="0"/><stop offset=".22" stop-color="#bababa" stop-opacity=".75"/><stop offset=".55" stop-color="#fff" stop-opacity="0"/><stop offset="1" stop-color="#fff" stop-opacity="0"/></linearGradient><linearGradient id="_Linear4" x1="0" y1="0" x2="1" y2="0" gradientUnits="userSpaceOnUse" gradientTransform="matrix(0 12.324 -12.324 0 128.768 0)"><stop offset="0" stop-color="#454545" stop-opacity=".39"/><stop offset=".23" stop-color="#999" stop-opacity=".39"/><stop offset="1" stop-color="#fff" stop-opacity=".39"/></linearGradient><linearGradient id="_Linear5" x1="0" y1="0" x2="1" y2="0" gradientUnits="userSpaceOnUse" gradientTransform="rotate(180 128.768 124.413) scale(9.46068)"><stop offset="0" stop-color="#fff" stop-opacity="0"/><stop offset=".22" stop-color="#bababa" stop-opacity=".75"/><stop offset=".55" stop-color="#fff" stop-opacity="0"/><stop offset="1" stop-color="#fff" stop-opacity="0"/></linearGradient><linearGradient id="_Linear6" x1="0" y1="0" x2="1" y2="0" gradientUnits="userSpaceOnUse" gradientTransform="rotate(180 6.826 124.413) scale(9.47583)"><stop offset="0" stop-color="#fff" stop-opacity="0"/><stop offset=".22" stop-color="#bababa" stop-opacity=".75"/><stop offset=".55" stop-color="#fff" stop-opacity="0"/><stop offset="1" stop-color="#fff" stop-opacity="0"/></linearGradient></defs></svg>