<?xml version="1.0" encoding="UTF-8" standalone="no"?>
<!DOCTYPE svg PUBLIC "-//W3C//DTD SVG 1.1//EN" "http://www.w3.org/Graphics/SVG/1.1/DTD/svg11.dtd">
<svg width="100%" height="100%" viewBox="0 0 131 17" version="1.1" xmlns="http://www.w3.org/2000/svg" xmlns:xlink="http://www.w3.org/1999/xlink" xml:space="preserve" xmlns:serif="http://www.serif.com/" style="fill-rule:evenodd;clip-rule:evenodd;stroke-linejoin:round;stroke-miterlimit:2;">
    <path d="M89.447,0.047L89.447,13.675L104.187,13.675C103.812,15.08 102.923,16.298 101.285,17L86.125,17L86.125,0.047L89.447,0.047ZM76.859,0.047C76.485,1.499 75.034,2.857 73.256,3.372L61.558,3.372L61.605,6.744L76.765,6.744L76.765,17L57.347,17C58.143,15.36 59.734,14.096 61.606,13.581L73.49,13.581L73.49,10.07L58.33,10.07L58.33,0.047L76.859,0.047ZM21.196,0L21.196,0.047C20.825,1.55 19.573,2.959 17.81,3.428L12.523,3.428L12.244,3.522L12.244,17L8.951,17L8.951,3.522L8.673,3.428L3.386,3.428C1.67,3.052 0.37,1.55 0,0.047L21.196,0ZM129.782,6.744L129.782,17L126.507,17L126.507,10.163L114.527,10.163L114.527,17L111.252,17L111.252,6.744L129.782,6.744ZM48.783,13.58C48.456,15.079 47.146,16.671 45.367,16.999L32.733,16.999C30.955,16.671 29.645,15.079 29.271,13.58L48.783,13.58ZM48.783,6.696C48.456,8.195 47.146,9.786 45.367,10.115L32.733,10.115C30.955,9.74 29.645,8.195 29.271,6.696L48.783,6.696ZM130.203,0C129.829,1.499 128.566,3.09 126.787,3.419L114.153,3.419C112.422,3.044 111.112,1.499 110.737,0L130.203,0ZM48.783,0C48.456,1.499 47.146,3.09 45.367,3.419L32.733,3.419C30.955,3.044 29.645,1.499 29.271,0L48.783,0Z" style="fill:rgb(55,83,105);fill-rule:nonzero;"/>
</svg>
